# xmcd
#
# Track frame offsets:
#	150
#	14748
#	25638
#	37348
#	51878
#	65277
#	78771
#	93563
#	105330
#	119316
#	133241
#	146054
#	158975
#	171931
#	183963
#	196730
#	208489
#	222806
#	235089
#	248220
#
# Disc length: 3451 seconds
#
# Revision: 0
# Processed by: cddbd v1.5.2PL0 Copyright (c) Steve Scherf et al.
# Submitted via: EasyCDDAExtractor 10.0.5.1
#
DISCID=1f0d7914
DTITLE=Tohama - Gigi
DYEAR=1900
DGENRE=Rétro
TTITLE0=Gigi
TTITLE1=Elle Chante
TTITLE2=La Fille Du Tonneler
TTITLE3=Est-Ce Ma Faute
TTITLE4=Rim Bam Bam
TTITLE5=Le Pêcheur Au Bord De L'eau
TTITLE6=Dans La Balançoire
TTITLE7=Monsieur Le Consul À Curityba
TTITLE8=Malaguena
TTITLE9=La Valse De Bohême
TTITLE10=Te Voye Benn
TTITLE11=La Mucura
TTITLE12=La Galante Isabelle
TTITLE13=Tzéna Tzéna
TTITLE14=Mon Faible Coeur
TTITLE15=Moineau De Paris
TTITLE16=Le Plus Joli Péché Du Monde
TTITLE17=La Montagne De Suzon
TTITLE18=Rose De Chine
TTITLE19=La Petite Valse
EXTD=
EXTT0=
EXTT1=
EXTT2=
EXTT3=
EXTT4=
EXTT5=
EXTT6=
EXTT7=
EXTT8=
EXTT9=
EXTT10=
EXTT11=
EXTT12=
EXTT13=
EXTT14=
EXTT15=
EXTT16=
EXTT17=
EXTT18=
EXTT19=
PLAYORDER=
